<svg id="sw-js-blob-svg" viewBox="0 0 100 100" xmlns="http://www.w3.org/2000/svg" version="1.1">                    <defs>                         <linearGradient id="sw-gradient" x1="0" x2="1" y1="1" y2="0">                            <stop id="stop1" stop-color="rgba(189, 147, 249, 1)" offset="0%"></stop>                            <stop id="stop2" stop-color="rgba(40, 42, 54, 1)" offset="100%"></stop>                        </linearGradient>                    </defs>                <path fill="url(#sw-gradient)" d="M21.5,-20.6C28.6,-19.6,35.7,-13.6,34.2,-8.1C32.7,-2.7,22.5,2.2,18,10.9C13.6,19.6,14.9,32,11.6,34.3C8.3,36.5,0.4,28.5,-7.9,24.3C-16.1,20.1,-24.8,19.7,-27,15.7C-29.2,11.7,-24.8,4,-23.1,-3.8C-21.3,-11.6,-22.2,-19.5,-18.8,-21.2C-15.4,-23,-7.7,-18.4,-0.3,-18.1C7.2,-17.8,14.3,-21.7,21.5,-20.6Z" width="100%" height="100%" transform="translate(50 50)" stroke-width="0" style="transition: all 0.3s ease 0s;" stroke="url(#sw-gradient)"></path>              </svg>
